<svg width="300" height="100" viewBox="0 0 300 100" fill="none"
  xmlns="http://www.w3.org/2000/svg">
  <path d="M146.607 35.5506C155.08 35.5506 160.95 42.6594 160.95 50.8233C160.95 59.0423 155.136 65.9291 146.718 65.9291C143.458 65.9291 140.089 64.7685 137.929 62.283C137.923 62.2758 137.913 62.2794 137.913 62.2883V70.9829C137.913 74.3061 135.226 77 131.912 77H127.834V36.4947H137.913V39.644C137.913 39.684 137.945 39.7158 137.984 39.7158C138.007 39.7158 138.031 39.7035 138.045 39.684C139.876 36.8736 143.297 35.5506 146.607 35.5506ZM181.606 35.5506C190.079 35.5506 195.949 42.6594 195.949 50.8233C195.949 59.0423 190.134 65.9291 181.717 65.9291C178.512 65.9291 175.2 64.8076 173.036 62.4063C172.993 62.3566 172.911 62.3867 172.911 62.4533V70.9829C172.911 74.3061 170.225 77 166.911 77H162.905C162.865 77 162.833 76.9684 162.833 76.9284V36.5665C162.833 36.5275 162.865 36.4947 162.905 36.4947H172.84C172.879 36.4947 172.911 36.5275 172.911 36.5665V39.644C172.911 39.684 172.943 39.7158 172.983 39.7158C173.007 39.7158 173.03 39.7035 173.043 39.684C174.876 36.8736 178.296 35.5506 181.606 35.5506ZM43.0378 22C47.2238 22 52.3418 23.3189 56.0475 25.4095C56.0805 25.4281 56.0937 25.4708 56.0759 25.5043L54.5328 28.5197C53.2127 31.1003 50.2465 32.3596 47.4725 31.5359C46.5415 31.26 45.5727 31.1082 44.5888 31.1082C42.5952 31.1082 39.9369 32.2742 39.9369 34.6073C39.9369 37.0501 42.8721 37.9944 44.7543 38.6058L47.5237 39.4382C53.3382 41.1605 57.8237 44.1031 57.8237 50.8792C57.8237 55.0437 56.8273 59.3199 53.5047 62.1525C50.2369 64.9291 45.862 66.096 41.6536 66.096C36.4144 66.096 31.2839 64.3329 27.0306 61.3565C27.0005 61.3353 26.9916 61.2953 27.0084 61.2634L31.63 52.5457C34.3439 54.9328 37.5552 56.877 41.2652 56.877C43.8136 56.877 46.5266 55.5992 46.5266 52.6566C46.5266 49.6014 42.2624 48.5462 39.9369 47.8797C33.1255 45.9364 28.6393 44.1591 28.6393 36.0511C28.6393 27.5533 34.6758 22 43.0378 22ZM105.867 35.5506C109.07 35.5506 112.433 36.7255 114.546 39.1259C114.591 39.1755 114.672 39.1454 114.672 39.0788V36.5665C114.672 36.5275 114.705 36.4947 114.744 36.4947H124.68C124.719 36.4947 124.751 36.5275 124.751 36.5665V58.9678C124.751 62.291 122.065 64.9851 118.75 64.9851H114.744C114.705 64.9851 114.672 64.953 114.672 64.9132V61.8915C114.672 61.8517 114.64 61.8197 114.6 61.8197C114.576 61.8197 114.553 61.8322 114.541 61.8527C112.762 64.6621 109.288 65.9291 105.978 65.9291C97.5607 65.9291 91.6346 58.8764 91.6346 50.7124C91.6346 42.5484 97.4491 35.5506 105.867 35.5506ZM204.319 53.1376C207.839 53.1376 210.696 56.003 210.696 59.5321C210.696 63.0613 207.839 65.9274 204.319 65.9274C200.799 65.9274 197.942 63.0613 197.942 59.5321C197.942 56.003 200.799 53.1376 204.319 53.1376ZM79.0343 35.5505C86.676 35.5505 89.7218 40.3824 89.7218 47.3802V58.9677C89.7218 62.2911 87.0353 64.985 83.7216 64.985H79.7147C79.675 64.985 79.6433 64.9532 79.6433 64.9131V51.1011C79.6433 48.3794 80.0865 43.6035 75.102 43.6035C71.0043 43.6035 69.8407 46.6578 69.8407 50.2128V58.9677C69.8407 62.2911 67.1552 64.985 63.8415 64.985H59.8339C59.7942 64.985 59.7622 64.9532 59.7622 64.9131V36.5664C59.7622 36.5276 59.7942 36.4948 59.8339 36.4948H69.769C69.8089 36.4948 69.8407 36.5276 69.8407 36.5664V40.0886C69.8407 40.1153 69.8552 40.1383 69.8767 40.1507L69.914 40.1605C69.9381 40.1605 69.9602 40.1479 69.9734 40.1286C72.2953 36.7104 75.1145 35.5505 79.0343 35.5505ZM108.525 44.3258C104.427 44.3258 102.046 47.2693 102.046 50.7674C102.046 54.3774 104.427 57.1547 108.525 57.1547C112.623 57.1547 115.005 54.3774 115.005 50.7674C115.005 47.2693 112.623 44.3258 108.525 44.3258ZM144.06 44.3258C139.961 44.3258 137.58 47.2693 137.58 50.7674C137.58 54.3774 139.961 57.1547 144.06 57.1547C148.158 57.1547 150.539 54.3774 150.539 50.7674C150.539 47.2693 148.158 44.3258 144.06 44.3258ZM179.058 44.3258C174.96 44.3258 172.579 47.2693 172.579 50.7674C172.579 54.3774 174.96 57.1547 179.058 57.1547C183.156 57.1547 185.538 54.3774 185.538 50.7674C185.538 47.2693 183.156 44.3258 179.058 44.3258ZM218.089 23.1111L212.425 44.8841C211.764 47.4498 209.52 49.2722 206.905 49.4086L206.59 49.4168H200.912L207.742 23.1111H218.089ZM202.638 23.1133L203.166 24.4973L203.693 23.1133H204.516V25.4528H204.006V23.5649H203.995L203.316 25.4528H203.015L202.337 23.5649H202.325V25.4528H201.815V23.1133H202.638ZM201.531 23.1133V23.5649H200.818V25.4528H200.256V23.5649H199.543V23.1133H201.531Z" fill="#22A958"/>
  <path d="M229.372 55.4667C229.372 62.4645 232.418 67.2964 240.06 67.2964C248.569 67.2964 248.406 65.192 251.073 62.7183C251.086 62.699 251.108 62.6864 251.132 62.6864L251.17 62.6962C251.191 62.7086 251.206 62.7316 251.206 62.7583L251.206 66.2805C251.206 66.3193 251.237 66.3521 251.277 66.3521L261.213 66.3521C261.252 66.3521 261.284 66.3193 261.284 66.2805L261.284 31.752C261.284 31.7119 261.252 31.6801 261.213 31.6801L257.205 31.6801C253.891 31.6801 251.206 34.374 251.206 37.6974L251.206 52.6341C251.206 56.1891 249.057 58.5926 245.944 58.5926C237.706 58.5926 239.451 54.4675 239.451 51.7458L239.451 31.752C239.451 31.7119 239.419 31.6801 239.38 31.6801L235.373 31.6801C232.059 31.6801 229.372 34.374 229.372 37.6974L229.372 55.4667Z" fill="#D9D9D9"/>
  <path d="M269.534 31.6176C266.22 31.6176 263.535 34.3115 263.535 37.6349L263.535 52.5716L263.535 62.6957L263.535 66.2179C263.535 66.2567 263.567 66.2895 263.606 66.2895L273.542 66.2896C273.581 66.2896 273.613 66.2567 273.613 66.2179L273.613 31.6894C273.613 31.6494 273.581 31.6176 273.542 31.6176L269.534 31.6176Z" fill="#D9D9D9"/>
</svg>
